<?xml version="1.0" encoding="UTF-8" standalone="no"?>
<!-- Created with Inkscape (http://www.inkscape.org/) -->

<svg
   width="78.446053mm"
   height="78.446045mm"
   viewBox="0 0 78.446053 78.446045"
   version="1.1"
   id="svg1"
   xml:space="preserve"
   inkscape:version="1.3 (0e150ed6c4, 2023-07-21)"
   sodipodi:docname="Buttons.svg"
   inkscape:export-filename="RunControl.png"
   inkscape:export-xdpi="96"
   inkscape:export-ydpi="96"
   xmlns:inkscape="http://www.inkscape.org/namespaces/inkscape"
   xmlns:sodipodi="http://sodipodi.sourceforge.net/DTD/sodipodi-0.dtd"
   xmlns="http://www.w3.org/2000/svg"
   xmlns:svg="http://www.w3.org/2000/svg"><sodipodi:namedview
     id="namedview1"
     pagecolor="#ffffff"
     bordercolor="#000000"
     borderopacity="0.25"
     inkscape:showpageshadow="2"
     inkscape:pageopacity="0.0"
     inkscape:pagecheckerboard="0"
     inkscape:deskcolor="#d1d1d1"
     inkscape:document-units="mm"
     inkscape:zoom="0.74646489"
     inkscape:cx="730.77784"
     inkscape:cy="748.19326"
     inkscape:window-width="2560"
     inkscape:window-height="1413"
     inkscape:window-x="1080"
     inkscape:window-y="27"
     inkscape:window-maximized="1"
     inkscape:current-layer="layer1" /><defs
     id="defs1"><filter
       style="color-interpolation-filters:sRGB"
       inkscape:label="Blur"
       id="filter24"
       x="-0.278642"
       y="-0.24199876"
       width="1.5572734"
       height="1.4839973"><feGaussianBlur
         stdDeviation="2 2"
         result="blur"
         id="feGaussianBlur24" /></filter><filter
       style="color-interpolation-filters:sRGB"
       inkscape:label="Blur"
       id="filter25"
       x="-0.10714673"
       y="-0.10714673"
       width="1.2142935"
       height="1.2142935"><feGaussianBlur
         stdDeviation="2 2"
         result="blur"
         id="feGaussianBlur25" /></filter></defs><g
     inkscape:label="Layer 1"
     inkscape:groupmode="layer"
     id="layer1"
     transform="translate(-127.67801,-48.736334)"><path
       id="path1"
       style="fill:none;stroke:#66d9ef;stroke-width:3.938;stroke-linecap:round;stroke-linejoin:round;stroke-opacity:0.998262;opacity:1;fill-opacity:0.49642542;stroke-dasharray:none"
       d="M 203.15506,87.959358 A 36.254025,36.254025 0 0 1 166.90103,124.21338 36.254025,36.254025 0 0 1 130.64701,87.959358 36.254025,36.254025 0 0 1 166.90103,51.705334 36.254025,36.254025 0 0 1 203.15506,87.959358 Z"
       inkscape:export-filename="RunControl.png"
       inkscape:export-xdpi="96"
       inkscape:export-ydpi="96" /><path
       style="fill:none;stroke:#66d9ef;stroke-width:3.938;stroke-linecap:round;stroke-linejoin:round;stroke-dasharray:none;stroke-opacity:0.998262"
       d="m 157.67463,72.001707 -0.0983,32.102563 27.88163,-16.165161 z"
       id="path2" /><path
       id="path25"
       style="opacity:1;fill:#a6e22e;fill-opacity:0.496425;stroke:#66d9ef;stroke-width:3.938;stroke-linecap:round;stroke-linejoin:round;stroke-opacity:0.998262;stroke-dasharray:none"
       d="M 295.17607,87.959358 A 36.254025,36.254025 0 0 1 258.92204,124.21338 36.254025,36.254025 0 0 1 222.66802,87.959358 36.254025,36.254025 0 0 1 258.92204,51.705334 36.254025,36.254025 0 0 1 295.17607,87.959358 Z"
       inkscape:export-filename="RunRollover.png"
       inkscape:export-xdpi="96"
       inkscape:export-ydpi="96" /><path
       style="fill:none;stroke:#66d9ef;stroke-width:3.938;stroke-linecap:round;stroke-linejoin:round;stroke-dasharray:none;stroke-opacity:0.998262"
       d="m 249.69564,72.001707 -0.0983,32.102563 27.88163,-16.165161 z"
       id="path26" /><path
       id="path27"
       style="opacity:1;fill:#66d9ef;fill-opacity:0.496425;stroke:#a6e22e;stroke-width:3.938;stroke-linecap:round;stroke-linejoin:round;stroke-opacity:0.998262;stroke-dasharray:none"
       d="M 391.45867,87.959358 A 36.254025,36.254025 0 0 1 355.20464,124.21338 36.254025,36.254025 0 0 1 318.95062,87.959358 36.254025,36.254025 0 0 1 355.20464,51.705334 36.254025,36.254025 0 0 1 391.45867,87.959358 Z"
       inkscape:export-filename="RunPressed.png"
       inkscape:export-xdpi="96"
       inkscape:export-ydpi="96" /><path
       style="fill:none;stroke:#a6e22e;stroke-width:3.938;stroke-linecap:round;stroke-linejoin:round;stroke-dasharray:none;stroke-opacity:0.998262"
       d="m 345.97824,72.001707 -0.0983,32.102563 27.88163,-16.165161 z"
       id="path28" /><path
       id="path29"
       style="opacity:1;fill:none;fill-opacity:0.496425;stroke:#66d9ef;stroke-width:3.938;stroke-linecap:round;stroke-linejoin:round;stroke-opacity:0.998262;stroke-dasharray:none"
       d="m 203.03927,180.89186 a 36.254025,36.254025 0 0 1 -36.25403,36.25402 36.254025,36.254025 0 0 1 -36.25402,-36.25402 36.254025,36.254025 0 0 1 36.25402,-36.25402 36.254025,36.254025 0 0 1 36.25403,36.25402 z"
       inkscape:export-filename="StepInControl.png"
       inkscape:export-xdpi="96"
       inkscape:export-ydpi="96" /><path
       style="opacity:1;fill:none;fill-opacity:0.496425;stroke:#66d9ef;stroke-width:3.938;stroke-linecap:round;stroke-linejoin:round;stroke-dasharray:none;stroke-opacity:0.998262"
       d="m 141.50385,176.30983 h 17.45002 v -6.85573 l 14.44058,10.56916 v -22.08954 h 10.52503 V 203.85 h -10.48687 v -22.18163 l -14.06125,10.70207 v -6.65678 h -17.87847 z"
       id="path30" /><path
       id="path31"
       style="opacity:1;fill:#a6e22e;fill-opacity:0.496425;stroke:#66d9ef;stroke-width:3.938;stroke-linecap:round;stroke-linejoin:round;stroke-opacity:0.998262;stroke-dasharray:none"
       d="m 295.78382,180.89186 a 36.254025,36.254025 0 0 1 -36.25403,36.25402 36.254025,36.254025 0 0 1 -36.25402,-36.25402 36.254025,36.254025 0 0 1 36.25402,-36.25402 36.254025,36.254025 0 0 1 36.25403,36.25402 z"
       inkscape:export-filename="StepInRollover.png"
       inkscape:export-xdpi="96"
       inkscape:export-ydpi="96" /><path
       style="opacity:1;fill:none;fill-opacity:0.496425;stroke:#66d9ef;stroke-width:3.938;stroke-linecap:round;stroke-linejoin:round;stroke-dasharray:none;stroke-opacity:0.998262"
       d="m 234.2484,176.30983 h 17.45002 v -6.85573 l 14.44058,10.56916 v -22.08954 h 10.52503 V 203.85 h -10.48687 v -22.18163 l -14.06125,10.70207 v -6.65678 h -17.87847 z"
       id="path32" /><path
       id="path33"
       style="opacity:1;fill:#66d9ef;fill-opacity:0.496425;stroke:#a6e22e;stroke-width:3.938;stroke-linecap:round;stroke-linejoin:round;stroke-opacity:0.998262;stroke-dasharray:none"
       d="m 394.29647,180.89186 a 36.254025,36.254025 0 0 1 -36.25403,36.25402 36.254025,36.254025 0 0 1 -36.25402,-36.25402 36.254025,36.254025 0 0 1 36.25402,-36.25402 36.254025,36.254025 0 0 1 36.25403,36.25402 z"
       inkscape:export-filename="StepInPressed.png"
       inkscape:export-xdpi="96"
       inkscape:export-ydpi="96" /><path
       style="opacity:1;fill:none;fill-opacity:0.496425;stroke:#a6e22e;stroke-width:3.938;stroke-linecap:round;stroke-linejoin:round;stroke-dasharray:none;stroke-opacity:0.998262"
       d="m 332.76105,176.30983 h 17.45002 v -6.85573 l 14.44058,10.56916 v -22.08954 h 10.52503 V 203.85 h -10.48687 v -22.18163 l -14.06125,10.70207 v -6.65678 h -17.87847 z"
       id="path34" /><path
       id="path35"
       style="opacity:1;fill:none;fill-opacity:0.496425;stroke:#66d9ef;stroke-width:3.938;stroke-linecap:round;stroke-linejoin:round;stroke-dasharray:none;stroke-opacity:0.998262"
       d="m 201.44088,279.17778 a 36.254025,36.254025 0 0 1 -36.25403,36.25402 36.254025,36.254025 0 0 1 -36.25402,-36.25402 36.254025,36.254025 0 0 1 36.25402,-36.25402 36.254025,36.254025 0 0 1 36.25403,36.25402 z"
       inkscape:export-filename="ResetControl.png"
       inkscape:export-xdpi="96"
       inkscape:export-ydpi="96" /><path
       style="opacity:1;fill:none;fill-opacity:0.496425;stroke:#66d9ef;stroke-width:3.93801;stroke-linecap:round;stroke-linejoin:round;stroke-dasharray:none;stroke-opacity:0.998262"
       d="m 166.50956,294.565 c 8.02915,0 15.0918,-7.7549 15.0918,-15.7419 0,-7.987 -8.11356,-15.21098 -16.11672,-15.21098 -8.00316,0 -14.27612,7.26086 -14.27612,15.29848 l 4.79296,-0.0661 -8.25682,11.32392 -8.61966,-11.05053 5.04054,-0.20388 c 0,-11.27004 10.0953,-22.01522 21.32019,-22.01522 11.22489,0 23.14546,10.57772 22.99657,21.78885 -0.14889,11.21113 -10.79016,22.57975 -22.0729,22.57975 z"
       id="path36"
       sodipodi:nodetypes="czzccccczzcc" /><path
       id="path37"
       style="opacity:1;fill:#a6e22e;fill-opacity:0.496425;stroke:#66d9ef;stroke-width:3.938;stroke-linecap:round;stroke-linejoin:round;stroke-dasharray:none;stroke-opacity:0.998262"
       d="m 295.7808,279.17778 a 36.254025,36.254025 0 0 1 -36.25403,36.25402 36.254025,36.254025 0 0 1 -36.25402,-36.25402 36.254025,36.254025 0 0 1 36.25402,-36.25402 36.254025,36.254025 0 0 1 36.25403,36.25402 z"
       inkscape:export-filename="ResetRollover.png"
       inkscape:export-xdpi="96"
       inkscape:export-ydpi="96" /><path
       style="opacity:1;fill:none;fill-opacity:0.496425;stroke:#66d9ef;stroke-width:3.93801;stroke-linecap:round;stroke-linejoin:round;stroke-dasharray:none;stroke-opacity:0.998262"
       d="m 260.84948,294.565 c 8.02915,0 15.0918,-7.7549 15.0918,-15.7419 0,-7.987 -8.11356,-15.21098 -16.11672,-15.21098 -8.00316,0 -14.27612,7.26086 -14.27612,15.29848 l 4.79296,-0.0661 -8.25682,11.32392 -8.61966,-11.05053 5.04054,-0.20388 c 0,-11.27004 10.0953,-22.01522 21.32019,-22.01522 11.22489,0 23.14546,10.57772 22.99657,21.78885 -0.14889,11.21113 -10.79016,22.57975 -22.0729,22.57975 z"
       id="path38"
       sodipodi:nodetypes="czzccccczzcc" /><path
       id="path39"
       style="opacity:1;fill:#66d9ef;fill-opacity:0.496425;stroke:#a6e22e;stroke-width:3.938;stroke-linecap:round;stroke-linejoin:round;stroke-dasharray:none;stroke-opacity:0.998262"
       d="m 396.7776,279.17778 a 36.254025,36.254025 0 0 1 -36.25403,36.25402 36.254025,36.254025 0 0 1 -36.25402,-36.25402 36.254025,36.254025 0 0 1 36.25402,-36.25402 36.254025,36.254025 0 0 1 36.25403,36.25402 z"
       inkscape:export-filename="ResetPressed.png"
       inkscape:export-xdpi="96"
       inkscape:export-ydpi="96" /><path
       style="opacity:1;fill:none;fill-opacity:0.496425;stroke:#a6e22e;stroke-width:3.93801;stroke-linecap:round;stroke-linejoin:round;stroke-dasharray:none;stroke-opacity:0.998262"
       d="m 361.84628,294.565 c 8.02915,0 15.0918,-7.7549 15.0918,-15.7419 0,-7.987 -8.11356,-15.21098 -16.11672,-15.21098 -8.00316,0 -14.27612,7.26086 -14.27612,15.29848 l 4.79296,-0.0661 -8.25682,11.32392 -8.61966,-11.05053 5.04054,-0.20388 c 0,-11.27004 10.0953,-22.01522 21.32019,-22.01522 11.22489,0 23.14546,10.57772 22.99657,21.78885 -0.14889,11.21113 -10.79016,22.57975 -22.0729,22.57975 z"
       id="path40"
       sodipodi:nodetypes="czzccccczzcc" /><path
       id="path41"
       style="opacity:1;fill:none;fill-opacity:0.496425;stroke:#66d9ef;stroke-width:3.938;stroke-linecap:round;stroke-linejoin:round;stroke-dasharray:none;stroke-opacity:0.998262"
       d="m 199.86836,375.12452 a 36.254025,36.254025 0 0 1 -36.25403,36.25402 36.254025,36.254025 0 0 1 -36.25402,-36.25402 36.254025,36.254025 0 0 1 36.25402,-36.25402 36.254025,36.254025 0 0 1 36.25403,36.25402 z"
       inkscape:export-filename="StepOverControl.png"
       inkscape:export-xdpi="96"
       inkscape:export-ydpi="96" /><path
       style="opacity:1;fill:none;fill-opacity:0.496425;stroke:#66d9ef;stroke-width:3.93801;stroke-linecap:round;stroke-linejoin:round;stroke-dasharray:none;stroke-opacity:0.998262"
       d="m 134.30011,371.14243 13.66216,-0.0455 c 0,-5.97222 8.81421,-10.89065 14.8365,-10.96874 6.02229,-0.0781 15.44903,5.00134 15.44903,11.0139 l 5.95695,0.062 -10e-4,-5.14633 11.23611,8.41795 -11.10772,8.44077 v -4.9693 l -11.36123,0.0993 c 0,-5.53095 -4.5119,-10.13783 -10.05283,-10.13783 -5.54093,0 -9.67858,4.61462 -9.67858,10.11468 l -18.89542,-0.098 z"
       id="path43"
       sodipodi:nodetypes="cczccccccczccc" /><path
       style="opacity:1;fill:none;fill-opacity:0.496425;stroke:#66d9ef;stroke-width:3.93801;stroke-linecap:round;stroke-linejoin:round;stroke-dasharray:none;stroke-opacity:0.998262"
       d="m 159.87683,374.60214 h 6.42638 v 18.73687 h -6.73693 z"
       id="path44"
       sodipodi:nodetypes="ccccc" /><path
       id="path45"
       style="opacity:1;fill:#a6e22e;fill-opacity:0.496425;stroke:#66d9ef;stroke-width:3.938;stroke-linecap:round;stroke-linejoin:round;stroke-dasharray:none;stroke-opacity:0.998262"
       d="m 294.42575,375.12452 a 36.254025,36.254025 0 0 1 -36.25403,36.25402 36.254025,36.254025 0 0 1 -36.25402,-36.25402 36.254025,36.254025 0 0 1 36.25402,-36.25402 36.254025,36.254025 0 0 1 36.25403,36.25402 z"
       inkscape:export-filename="StepOverRollover.png"
       inkscape:export-xdpi="96"
       inkscape:export-ydpi="96" /><path
       style="opacity:1;fill:none;fill-opacity:0.496425;stroke:#66d9ef;stroke-width:3.93801;stroke-linecap:round;stroke-linejoin:round;stroke-dasharray:none;stroke-opacity:0.998262"
       d="m 228.8575,371.14243 13.66216,-0.0455 c 0,-5.97222 8.81421,-10.89065 14.8365,-10.96874 6.02229,-0.0781 15.44903,5.00134 15.44903,11.0139 l 5.95695,0.062 -10e-4,-5.14633 11.23611,8.41795 -11.10772,8.44077 v -4.9693 l -11.36123,0.0993 c 0,-5.53095 -4.5119,-10.13783 -10.05283,-10.13783 -5.54093,0 -9.67858,4.61462 -9.67858,10.11468 l -18.89542,-0.098 z"
       id="path46"
       sodipodi:nodetypes="cczccccccczccc" /><path
       style="opacity:1;fill:none;fill-opacity:0.496425;stroke:#66d9ef;stroke-width:3.93801;stroke-linecap:round;stroke-linejoin:round;stroke-dasharray:none;stroke-opacity:0.998262"
       d="m 254.43422,374.60214 h 6.42638 v 18.73687 h -6.73693 z"
       id="path47"
       sodipodi:nodetypes="ccccc" /><path
       id="path48"
       style="opacity:1;fill:#66d9ef;fill-opacity:0.496425;stroke:#a6e22e;stroke-width:3.938;stroke-linecap:round;stroke-linejoin:round;stroke-dasharray:none;stroke-opacity:0.998262"
       d="m 396.60309,375.12452 a 36.254025,36.254025 0 0 1 -36.25403,36.25402 36.254025,36.254025 0 0 1 -36.25402,-36.25402 36.254025,36.254025 0 0 1 36.25402,-36.25402 36.254025,36.254025 0 0 1 36.25403,36.25402 z"
       inkscape:export-filename="StepOverPressed.png"
       inkscape:export-xdpi="96"
       inkscape:export-ydpi="96" /><path
       style="opacity:1;fill:none;fill-opacity:0.496425;stroke:#a6e22e;stroke-width:3.93801;stroke-linecap:round;stroke-linejoin:round;stroke-dasharray:none;stroke-opacity:0.998262"
       d="m 331.03484,371.14243 13.66216,-0.0455 c 0,-5.97222 8.81421,-10.89065 14.8365,-10.96874 6.02229,-0.0781 15.44903,5.00134 15.44903,11.0139 l 5.95695,0.062 -10e-4,-5.14633 11.23611,8.41795 -11.10772,8.44077 v -4.9693 l -11.36123,0.0993 c 0,-5.53095 -4.5119,-10.13783 -10.05283,-10.13783 -5.54093,0 -9.67858,4.61462 -9.67858,10.11468 l -18.89542,-0.098 z"
       id="path49"
       sodipodi:nodetypes="cczccccccczccc" /><path
       style="opacity:1;fill:none;fill-opacity:0.496425;stroke:#a6e22e;stroke-width:3.93801;stroke-linecap:round;stroke-linejoin:round;stroke-dasharray:none;stroke-opacity:0.998262"
       d="m 356.61156,374.60214 h 6.42638 v 18.73687 h -6.73693 z"
       id="path50"
       sodipodi:nodetypes="ccccc" /></g></svg>
